# AST/ASF file generated using VICON BodyLanguage
# -----------------------------------------------
:version 1.10
:name VICON
:units
  mass 1.0
  length 0.45
  angle deg
:documentation
   .ast/.asf automatically generated from VICON data using
   VICON BodyBuilder and BodyLanguage model FoxedUp or BRILLIANT.MOD
:root
   order TX TY TZ RX RY RZ
   axis XYZ
   position 0 0 0  
   orientation 0 0 0 
:bonedata
  begin
     id 1 
     name lhipjoint
     direction 0.560651 -0.75055 0.34978 
     length 2.44936 
     axis 0 0 0  XYZ
  end
  begin
     id 2 
     name lfemur
     direction 0.34202 -0.939693 0  
     length 7.42139  
     axis 0 0 20  XYZ
    dof rx ry rz
    limits (-160.0 20.0)
           (-70.0 70.0)
           (-60.0 70.0)
  end
  begin
     id 3 
     name ltibia
     direction 0.34202 -0.939693 0   
     length 7.75674   
     axis 0 0 20   XYZ
    dof rx
    limits (-10.0 170.0)
  end
  begin
     id 4 
     name lfoot
     direction 0.0925879 -0.254383 0.962661   
     length 2.38688   
     axis -90 7.62852e-016 20   XYZ
    dof rx rz
    limits (-45.0 90.0)
           (-70.0 20.0)
  end
  begin
     id 5 
     name ltoes
     direction 1.53567e-011 -4.21973e-011 1   
     length 1.19228   
     axis -90 7.62852e-016 20   XYZ
    dof rx
    limits (-90.0 20.0)
  end
  begin
     id 6 
     name rhipjoint
     direction -0.540087 -0.762838 0.355506   
     length 2.4099  
     axis 0 0 0  XYZ 
  end
  begin
     id 7 
     name rfemur
     direction -0.34202 -0.939693 0   
     length 7.70794   
     axis 0 0 -20   XYZ
    dof rx ry rz
    limits (-160.0 20.0)
           (-70.0 70.0)
           (-70.0 60.0)
  end
  begin
     id 8 
     name rtibia
     direction -0.34202 -0.939693 0   
     length 7.66106   
     axis 0 0 -20   XYZ
    dof rx
    limits (-10.0 170.0)
 end
 begin
     id 9 
     name rfoot
     direction -0.0830975 -0.228308 0.970036   
     length 2.4989  
     axis -90 -7.62852e-016 -20   XYZ
    dof rx rz
    limits (-45.0 90.0)
           (-20.0 70.0)
  end
  begin
     id 10 
     name rtoes
     direction -1.53517e-011 -4.21842e-011 1   
     length 1.2498   
     axis -90 -7.62852e-016 -20   XYZ
    dof rx
    limits (-90.0 20.0)
  end
  begin
     id 11 
     name lowerback
     direction 0.0266356 0.99402 -0.105896   
     length 2.1545   
     axis 0 0 0   XYZ
    dof rx ry rz
    limits (-20.0 45.0)
           (-30.0 30.0)
           (-30.0 30.0)
  end
  begin
     id 12 
     name upperback
     direction 0.0130547 0.999192 0.0380027   
     length 2.1434   
     axis 0 0 0   XYZ
    dof rx ry rz
    limits (-20.0 45.0)
           (-30.0 30.0)
           (-30.0 30.0)
  end
  begin
     id 13 
     name thorax
     direction 0.000590299 0.996288 0.0860764   
     length 2.19049   
     axis 0 0 0   XYZ
    dof rx ry rz
    limits (-20.0 45.0)
           (-30.0 30.0)
           (-30.0 30.0)
  end
  begin
     id 14 
     name lowerneck
     direction -0.0432125 0.978219 0.203028   
     length 1.62441   
     axis 0 0 0   XYZ
    dof rx ry rz
    limits (-20.0 45.0)
           (-30.0 30.0)
           (-30.0 30.0)
  end
  begin
     id 15 
     name upperneck
     direction -0.0192309 0.991699 -0.127138   
     length 1.66666   
     axis 0 0 0   XYZ
    dof rx ry rz
    limits (-20.0 45.0)
           (-30.0 30.0)
           (-30.0 30.0)
  end
  begin
     id 16
     name head
     direction -0.00434499 0.997882 -0.0649107  
     length 1.67142  
     axis 0 0 0   XYZ
    dof rx ry rz
    limits (-20.0 45.0)
           (-30.0 30.0)
           (-30.0 30.0)
  end
  begin
     id 17 
     name lclavicle
     direction 0.970351 0.240904 -0.0196058  
     length 4.04862  
     axis 0 0 0   XYZ
    dof ry rz
    limits (-20.0 10.0)
           (0.0 20.0)
  end
  begin
     id 18 
     name lhumerus
     direction 1 -4.4896e-011 -1.40911e-018   
     length 5.58345   
     axis 180 -30 -90   XYZ
    dof rx ry rz
    limits (-60.0 90.0)
           (-90.0 90.0)
           (-90.0 90.0)
  end
  begin
     id 19
     name lradius
     direction 1 -4.48968e-011 5.88912e-028   
     length 3.71087   
     axis 180 -30 -90   XYZ
    dof rx
    limits (-10.0 170.0)
  end
  begin
     id 20
     name lwrist
     direction 1 -4.48955e-011 -8.83775e-028   
     length 1.85544   
     axis 5.52448e-016 90 90   XYZ
    dof ry
    limits (-180.0 0.0)
 end
  begin
     id 21 
     name lhand
     direction 1 -4.49035e-011 -1.76755e-027   
     length 0.562322   
     axis 1.12785e-015 90 90   XYZ
    dof rx rz
    limits (-90.0 90.0)
           (-45.0 45.0)
  end
  begin
     id 22 
     name lfingers
     direction 1 -4.48824e-011 -3.5351e-027   
     length 0.453359   
     axis 2.2557e-015 90 90   XYZ
    dof rx
    limits (0.0 90.0)
  end
  begin
     id 23
     name lthumb
     direction 0.707107 -6.34888e-011 0.707107   
     length 0.650935   
     axis -90 45 2.85299e-015   XYZ
    dof rx rz
    limits (-45.0 45.0)
           (-45.0 45.0)
  end
  begin
     id 24 
     name rclavicle
     direction -0.96165 0.268562 -0.0557131   
     length 4.05446  
     axis 0 0 0   XYZ 
    dof ry rz
    limits (-10.0 20.0)
           (-20.0 0.0)
  end
  begin
     id 25 
     name rhumerus
     direction -1 -4.48957e-011 -3.36329e-027  
     length 5.20357   
     axis 180 30 90   XYZ
    dof rx ry rz
    limits (-90.0 60.0)
           (-90.0 90.0)
           (-90.0 90.0)
  end
  begin
     id 26 
     name rradius
     direction -1 -4.48974e-011 4.51441e-027   
     length 3.64937   
     axis 180 30 90   XYZ
    dof rx
    limits (-10.0 170.0)
  end
  begin
     id 27 
     name rwrist
     direction -1 -4.4896e-011 -8.83775e-028   
     length 1.82468   
     axis 5.52448e-016 -90 -90   XYZ
    dof ry
    limits (-180.0 0.0)
  end
  begin
     id 28
     name rhand
     direction -1 -4.48996e-011 -1.76755e-027   
     length 0.617996   
     axis 1.12785e-015 -90 -90   XYZ
    dof rx rz
    limits (-90.0 90.0)
           (-45.0 45.0)
  end
  begin
     id 29
     name rfingers
     direction -1 -4.48957e-011 -3.5351e-027   
     length 0.498244   
     axis 2.2557e-015 -90 -90   XYZ
    dof rx
    limits (0.0 90.0)
  end
  begin
     id 30
     name rthumb
     direction -0.707107 -6.34931e-011 0.707107   
     length 0.715382   
     axis -90 -45 -2.85299e-015   XYZ
    dof rx rz
    limits (-45.0 45.0)
           (-45.0 45.0)
  end
:hierarchy
  begin
    root lhipjoint rhipjoint lowerback
    lhipjoint lfemur
    lfemur ltibia
    ltibia lfoot
    lfoot ltoes
    rhipjoint rfemur
    rfemur rtibia
    rtibia rfoot
    rfoot rtoes
    lowerback upperback
    upperback thorax
    thorax lowerneck lclavicle rclavicle
    lowerneck upperneck
    upperneck head
    lclavicle lhumerus
    lhumerus lradius
    lradius lwrist
    lwrist lhand lthumb
    lhand lfingers
    rclavicle rhumerus
    rhumerus rradius
    rradius rwrist
    rwrist rhand rthumb
    rhand rfingers
  end

#!OML:ASF H:\ManfredETheater\Project 1\Capture day 2\Session 1\Male1.ASF
:FULLY-SPECIFIED
:DEGREES
82
root 3.32492 16.103 1.77964 -9.15109 -1.97809 -3.30187
lowerback 8.02656 0.0567631 2.48573
upperback 0.601388 0.424053 3.07503
thorax -3.8866 0.19236 1.74314
lowerneck -27.06 -0.715086 -1.00464
upperneck 22.95 0.294932 -3.01689
head 12.0416 -0.388473 -0.925684
rclavicle 4.12478e-015 3.02153e-014
rhumerus 33.8033 -0.498962 -51.0999
rradius 55.7594
rwrist 20.0804
rhand 10.9839 -18.5345
rfingers 7.12502
rthumb 36.059 -44.8365
lclavicle 4.12478e-015 3.02153e-014
lhumerus 25.7742 3.38991 64.321
lradius 71.0314
lwrist -19.7395
lhand 17.7822 13.9694
lfingers 7.12502
lthumb 42.4637 38.4022
rfemur -11.9946 -11.4324 14.0726
rtibia 62.3506
rfoot -32.8664 -3.39284
rtoes -12.3056
lfemur -11.9246 8.54696 -5.91172
ltibia 60.689
lfoot -32.5962 -4.675
ltoes -12.8522
83
root 3.3248 16.1045 1.78115 -9.17336 -1.97003 -3.31
lowerback 8.03533 0.0568755 2.49132
upperback 0.592437 0.425537 3.07601
thorax -3.90081 0.192926 1.74092
lowerneck -27.0239 -0.723018 -0.997654
upperneck 22.9439 0.286257 -3.03893
head 12.0325 -0.39449 -0.936383
rclavicle 6.90777e-015 6.36111e-015
rhumerus 33.7743 -0.501798 -51.0956
rradius 55.7583
rwrist 20.1209
rhand 10.9454 -18.5694
rfingers 7.12502
rthumb 36.0225 -44.8804
lclavicle 6.90777e-015 6.36111e-015
lhumerus 25.7552 3.37675 64.3239
lradius 71.039
lwrist -19.7357
lhand 17.8014 13.9482
lfingers 7.12502
lthumb 42.4817 38.3747
rfemur -11.9516 -11.4229 14.0755
rtibia 62.3262
rfoot -32.8707 -3.37215
rtoes -12.1849
lfemur -11.8846 8.51931 -5.90522
ltibia 60.6691
lfoot -32.5991 -4.66035
ltoes -12.9035
84
root 3.32465 16.1052 1.78098 -9.17029 -1.96311 -3.30884
lowerback 8.02785 0.0541089 2.48128
upperback 0.584636 0.420894 3.07514
thorax -3.90473 0.190757 1.74621
lowerneck -27.0468 -0.728002 -1.06363
upperneck 22.9613 0.297123 -3.00255
head 12.0437 -0.390949 -0.910189
rclavicle -9.64106e-015 1.03368e-014
rhumerus 33.7845 -0.507093 -51.0959
rradius 55.7448
rwrist 20.1589
rhand 10.974 -18.542
rfingers 7.12502
rthumb 36.0495 -44.8463
lclavicle -9.64106e-015 1.03368e-014
lhumerus 25.7457 3.38118 64.3078
lradius 71.0462
lwrist -19.7223
lhand 17.7748 14.0027
lfingers 7.12502
lthumb 42.4568 38.4378
rfemur -11.9468 -11.4251 14.0761
rtibia 62.3088
rfoot -32.8661 -3.36041
rtoes -12.1307
lfemur -11.8858 8.49777 -5.91484
ltibia 60.6536
lfoot -32.5885 -4.65338
ltoes -12.8653
85
root 3.32395 16.1059 1.78237 -9.19334 -1.95116 -3.33858
lowerback 8.01795 0.0497981 2.49327
upperback 0.593474 0.415959 3.08869
thorax -3.88998 0.188304 1.75405
lowerneck -27.0191 -0.721431 -1.01878
upperneck 22.9415 0.291427 -3.01955
head 12.0306 -0.391328 -0.924567
rclavicle 5.56597e-015 -1.90833e-014
rhumerus 33.7863 -0.520716 -51.0981
rradius 55.7465
rwrist 20.1686
rhand 10.9629 -18.552
rfingers 7.12502
rthumb 36.039 -44.8589
lclavicle 5.56597e-015 -1.90833e-014
lhumerus 25.7469 3.38746 64.3083
lradius 71.0496
lwrist -19.7111
lhand 17.7999 14.0127
lfingers 7.12502
lthumb 42.4803 38.4398
rfemur -11.897 -11.4312 14.1079
rtibia 62.2834
rfoot -32.8686 -3.40482
rtoes -12.2422
lfemur -11.8477 8.46639 -5.88064
ltibia 60.6336
lfoot -32.5922 -4.65119
ltoes -12.866
86
root 3.32444 16.1068 1.78259 -9.19678 -1.93354 -3.31987
lowerback 8.00924 0.0499095 2.47944
upperback 0.59192 0.414101 3.07799
thorax -3.88669 0.187551 1.75088
lowerneck -27.0578 -0.735117 -1.09799
upperneck 22.9622 0.292525 -2.97119
head 12.0459 -0.39181 -0.893558
rclavicle -4.82053e-015 -4.77083e-015
rhumerus 33.7866 -0.548075 -51.1049
rradius 55.7542
rwrist 20.156
rhand 11.0218 -18.5531
rfingers 7.12502
rthumb 36.0948 -44.8463
lclavicle -4.82053e-015 -4.77083e-015
lhumerus 25.7468 3.38207 64.2946
lradius 71.0522
lwrist -19.7352
lhand 17.801 13.9695
lfingers 7.12502
lthumb 42.4813 38.3962
rfemur -11.8824 -11.4405 14.0795
rtibia 62.2676
rfoot -32.8615 -3.38199
rtoes -12.1802
lfemur -11.839 8.4301 -5.91656
ltibia 60.6137
lfoot -32.5921 -4.6425
ltoes -12.8039
87
root 3.32485 16.1085 1.78354 -9.19747 -1.91584 -3.33598
lowerback 7.98583 0.042084 2.48714
upperback 0.585006 0.403897 3.08591
thorax -3.88064 0.182444 1.75592
lowerneck -27.0333 -0.735887 -1.10202
upperneck 22.9607 0.294684 -2.97878
head 12.0409 -0.392108 -0.895181
rclavicle 1.54058e-015 0
rhumerus 33.8001 -0.54782 -51.1033
rradius 55.7315
rwrist 20.1355
rhand 11.0417 -18.5276
rfingers 7.12502
rthumb 36.1137 -44.8161
lclavicle 1.54058e-015 0
lhumerus 25.7354 3.39901 64.3092
lradius 71.0546
lwrist -19.7512
lhand 17.7781 14.0026
lfingers 7.12502
lthumb 42.4599 38.4367
rfemur -11.863 -11.4519 14.0942
rtibia 62.2423
rfoot -32.8545 -3.3938
rtoes -12.1972
lfemur -11.8304 8.40502 -5.90834
ltibia 60.5946
lfoot -32.5857 -4.62844
ltoes -12.813
88
root 3.32511 16.11 1.78355 -9.201 -1.90246 -3.31883
lowerback 7.97329 0.0441816 2.46238
upperback 0.586451 0.403736 3.0833
thorax -3.87225 0.182813 1.76709
lowerneck -27.0592 -0.74385 -1.11536
upperneck 22.9813 0.287864 -2.97053
head 12.0536 -0.395638 -0.891524
rclavicle -8.54774e-015 -1.51076e-014
rhumerus 33.8062 -0.56936 -51.1026
rradius 55.7244
rwrist 20.092
rhand 11.0491 -18.5114
rfingers 7.12502
rthumb 36.1207 -44.7982
lclavicle -8.54774e-015 -1.51076e-014
lhumerus 25.7486 3.40837 64.3245
lradius 71.0607
lwrist -19.7759
lhand 17.8221 13.9624
lfingers 7.12502
lthumb 42.5011 38.3823
rfemur -11.8524 -11.4555 14.0703
rtibia 62.225
rfoot -32.8352 -3.38002
rtoes -12.1842
lfemur -11.8232 8.39066 -5.93701
ltibia 60.5738
lfoot -32.5746 -4.60893
ltoes -12.8343
89
root 3.3258 16.1102 1.78375 -9.20929 -1.89111 -3.33383
lowerback 7.96714 0.0405494 2.47531
upperback 0.58185 0.400079 3.08607
thorax -3.87348 0.180791 1.76313
lowerneck -27.0472 -0.740094 -1.11019
upperneck 22.9806 0.291356 -2.97282
head 12.0512 -0.393836 -0.892519
rclavicle 3.926e-015 -5.56597e-015
rhumerus 33.7776 -0.575005 -51.0986
rradius 55.7482
rwrist 20.0448
rhand 11.0124 -18.5348
rfingers 7.12502
rthumb 36.0859 -44.8302
lclavicle 3.926e-015 -5.56597e-015
lhumerus 25.7349 3.40137 64.2954
lradius 71.0703
lwrist -19.7593
lhand 17.8438 13.968
lfingers 7.12502
lthumb 42.5214 38.3809
rfemur -11.828 -11.4667 14.0793
rtibia 62.2035
rfoot -32.8256 -3.38608
rtoes -12.1829
lfemur -11.8094 8.36289 -5.93081
ltibia 60.5598
lfoot -32.5714 -4.58225
ltoes -12.822
90
root 3.32608 16.1115 1.78406 -9.21015 -1.87712 -3.32386
lowerback 7.95904 0.0378352 2.4545
upperback 0.579218 0.394339 3.08584
thorax -3.87173 0.178302 1.77522
lowerneck -27.065 -0.738542 -1.11047
upperneck 22.9887 0.292646 -2.96702
head 12.0576 -0.392688 -0.890274
rclavicle -7.00716e-015 -2.54444e-014
rhumerus 33.7866 -0.584172 -51.104
rradius 55.7447
rwrist 20.0137
rhand 10.9984 -18.526
rfingers 7.12502
rthumb 36.0726 -44.8247
lclavicle -7.00716e-015 -2.54444e-014
lhumerus 25.7292 3.39885 64.2679
lradius 71.0702
lwrist -19.7191
lhand 17.7984 13.9902
lfingers 7.12502
lthumb 42.4788 38.4178
rfemur -11.8178 -11.4743 14.0638
rtibia 62.1847
rfoot -32.8147 -3.37516
rtoes -12.1281
lfemur -11.8027 8.34271 -5.94934
ltibia 60.5438
lfoot -32.5677 -4.60307
ltoes -12.7379
91
root 3.32642 16.1124 1.78426 -9.22115 -1.87133 -3.32886
lowerback 7.94858 0.0404819 2.45709
upperback 0.579901 0.397659 3.08758
thorax -3.86521 0.179956 1.77517
lowerneck -27.0523 -0.745883 -1.11664
upperneck 22.9715 0.286498 -2.97536
head 12.0485 -0.39688 -0.893225
rclavicle -5.86415e-015 3.18055e-014
rhumerus 33.7882 -0.603388 -51.0975
rradius 55.7367
rwrist 20.0199
rhand 11.0204 -18.5093
rfingers 7.12502
rthumb 36.0935 -44.8028
lclavicle -5.86415e-015 3.18055e-014
lhumerus 25.7442 3.41144 64.2925
lradius 71.074
lwrist -19.7582
lhand 17.829 13.9719
lfingers 7.12502
lthumb 42.5075 38.3896
rfemur -11.7897 -11.4817 14.0633
rtibia 62.1626
rfoot -32.8151 -3.36289
rtoes -12.1164
lfemur -11.7809 8.32933 -5.94859
ltibia 60.5263
lfoot -32.5634 -4.57954
ltoes -12.7938
92
root 3.3266 16.1129 1.78402 -9.22772 -1.86158 -3.34724
lowerback 7.95483 0.0356034 2.46541
upperback 0.570308 0.392858 3.09399
thorax -3.87862 0.177407 1.77778
lowerneck -27.0621 -0.74411 -1.11516
upperneck 23.0008 0.289887 -2.9767
head 12.0619 -0.395848 -0.893795
rclavicle -3.42904e-015 5.56597e-015
rhumerus 33.7808 -0.606618 -51.1042
rradius 55.7521
rwrist 20.0587
rhand 11.0082 -18.5293
rfingers 7.12502
rthumb 36.0819 -44.8257
lclavicle -3.42904e-015 5.56597e-015
lhumerus 25.7281 3.40537 64.2761
lradius 71.0761
lwrist -19.7188
lhand 17.7757 14.0176
lfingers 7.12502
lthumb 42.4576 38.4524
rfemur -11.7654 -11.4886 14.0822
rtibia 62.1368
rfoot -32.8049 -3.39056
rtoes -12.185
lfemur -11.7729 8.31813 -5.92846
ltibia 60.5136
lfoot -32.5554 -4.59268
ltoes -12.7517
93
root 3.32681 16.1151 1.78428 -9.24202 -1.86658 -3.34191
lowerback 7.95816 0.040487 2.4631
upperback 0.570721 0.398939 3.08522
thorax -3.88008 0.180387 1.76928
lowerneck -27.0706 -0.744552 -1.10665
upperneck 23.0063 0.284507 -2.97129
head 12.0654 -0.396816 -0.894232
rclavicle -8.69683e-015 -2.38542e-015
rhumerus 33.7737 -0.631808 -51.1225
rradius 55.7515
rwrist 20.1131
rhand 11.0292 -18.5271
rfingers 7.12502
rthumb 36.1018 -44.8185
lclavicle -8.69683e-015 -2.38542e-015
lhumerus 25.7349 3.40251 64.2506
lradius 71.0924
lwrist -19.7061
lhand 17.7585 14.0326
lfingers 7.12502
lthumb 42.4416 38.473
rfemur -11.7339 -11.4769 14.0748
rtibia 62.1117
rfoot -32.8052 -3.3783
rtoes -12.1377
lfemur -11.7444 8.31711 -5.9374
ltibia 60.4903
lfoot -32.557 -4.57232
ltoes -12.8163
